<?xml version="1.0" encoding="UTF-8"?>
<svg version="1.1" xmlns="http://www.w3.org/2000/svg" width="1536" height="1024">
<path d="M0 0 C506.88 0 1013.76 0 1536 0 C1536 337.92 1536 675.84 1536 1024 C1029.12 1024 522.24 1024 0 1024 C0 686.08 0 348.16 0 0 Z " fill="#0F0F0F" transform="translate(0,0)"/>
<path d="M0 0 C9.57 0 19.14 0 29 0 C30.7325 3.609375 32.465 7.21875 34.25 10.9375 C34.78786133 12.05632568 35.32572266 13.17515137 35.87988281 14.32788086 C37.94252783 18.63317663 39.99445508 22.93735289 41.9140625 27.30859375 C43.65084987 31.26031777 45.47625324 35.16779965 47.3203125 39.0703125 C47.77446533 40.03184486 47.77446533 40.03184486 48.23779297 41.01280212 C48.87226293 42.35582878 49.50678568 43.69883051 50.14135742 45.04180908 C55.48244432 56.35334028 60.73632317 67.68352862 65.59033203 79.21533203 C67.94211131 84.75596457 70.54047952 90.12930026 73.25894165 95.49952698 C76.33439236 101.60385239 79.16373081 107.81383514 81.96777344 114.0461731 C83.57430772 117.61672363 85.18994447 121.18315615 86.8046875 124.75 C87.1422406 125.49617081 87.4797937 126.24234161 87.82757568 127.01112366 C90.3678763 132.62073648 92.93210191 138.2190658 95.5078125 143.8125 C95.88340302 144.62827011 96.25899353 145.44404022 96.64596558 146.28453064 C98.11696168 149.47823298 99.58853876 152.6716622 101.06292725 155.86380005 C105.00807678 164.40574811 108.8873793 172.9689362 112.63748169 181.59846497 C114.90903929 186.81887188 117.29361233 191.96931418 119.765625 197.09765625 C122.91304026 203.72455352 122.91304026 203.72455352 123 206 C116.02705217 215.5969782 104.70734268 222.98787033 95 229.625 C94.35272949 230.07544678 93.70545898 230.52589355 93.03857422 230.98999023 C91.41177786 232.07673826 89.70960504 233.04882269 88 234 C85 233 85 233 83.6328125 230.60546875 C83.13523437 229.47753906 82.63765625 228.34960938 82.125 227.1875 C81.50343509 225.80301208 80.88096153 224.4189319 80.2578125 223.03515625 C79.90493164 222.24383301 79.55205078 221.45250977 79.18847656 220.63720703 C77.37321817 216.60918297 75.49591845 212.61052872 73.62597656 208.60766602 C68.13833698 196.85373529 62.73632409 185.06199271 57.375 173.25 C56.73975079 171.85107209 56.10449691 170.45214629 55.46923828 169.05322266 C53.09319267 163.81967421 50.71743086 158.58600096 48.34765625 153.34960938 C46.86015188 150.06485846 45.36809169 146.78221405 43.875 143.5 C43.45009277 142.55801758 43.02518555 141.61603516 42.58740234 140.64550781 C40.30242199 135.63299788 37.85607233 130.79412359 35.09326172 126.02685547 C33.96652124 123.93793197 33.09075938 121.8428921 32.25 119.625 C30.29137731 114.52143438 27.97793745 109.61769438 25.625 104.6875 C25.23352783 103.86588379 24.84205566 103.04426758 24.4387207 102.19775391 C22.96232709 99.1028703 21.48323587 96.00928412 20.00244141 92.91650391 C19.14187766 91.1136571 18.28938362 89.30696454 17.4375 87.5 C16.96183594 86.4996875 16.48617187 85.499375 15.99609375 84.46875 C15 82 15 82 15 79 C14.34 79 13.68 79 13 79 C12.90271606 80.34143066 12.90271606 80.34143066 12.8034668 81.70996094 C11.94305191 87.65782412 9.387855 93.10670259 7.14453125 98.640625 C6.64802174 99.88194054 6.15233572 101.12358574 5.65742493 102.36553955 C4.62567735 104.95262638 3.59030681 107.53821835 2.55230713 110.12280273 C0.11093155 116.20984888 -2.2794368 122.31699802 -4.67578125 128.421875 C-5.61504337 130.80997097 -6.55449663 133.19799176 -7.49414062 135.5859375 C-7.95796143 136.76510742 -8.42178223 137.94427734 -8.8996582 139.15917969 C-9.85007282 141.57471419 -10.80092687 143.99007583 -11.75219727 146.40527344 C-18.16745137 162.65020173 -18.16745137 162.65020173 -24.37109375 178.9765625 C-26.70250973 185.24986044 -29.18598611 191.44378564 -31.75 197.625 C-37.87437453 212.51326202 -43.70738298 227.51438231 -49.54199219 242.51806641 C-50.1025531 243.95702271 -50.1025531 243.95702271 -50.67443848 245.42504883 C-51.3656022 247.19954345 -52.05546256 248.97454674 -52.74353027 250.75024414 C-56.04189014 259.21607539 -59.52554844 267.60533907 -63 276 C-51.67201688 275.93843947 -40.34425753 275.86108664 -29.01651764 275.76428509 C-23.75500559 275.71980365 -18.49356704 275.68050027 -13.23193359 275.65356445 C-8.14187872 275.62730757 -3.05211013 275.58675202 2.0377655 275.53681374 C3.96710107 275.52029483 5.89648597 275.50868835 7.82588196 275.50238609 C19.60250045 275.46007526 30.49458914 274.59119746 42 272 C43.78161232 271.65012802 45.56395134 271.30388603 47.34765625 270.96484375 C89.44778695 262.08857293 121.08051829 235.31875774 150.54296875 205.60473633 C152.47196899 203.66579472 154.40256998 201.72845003 156.3331604 199.79109192 C160.46547738 195.64288578 164.59435531 191.49128333 168.72109985 187.33753395 C175.2550258 180.76135093 181.79903765 174.1952541 188.34448242 167.63053894 C190.59218034 165.37596405 192.83980045 163.12131161 195.08738708 160.86662579 C195.64880773 160.30343348 196.21022838 159.74024118 196.78866178 159.15998245 C203.15491455 152.77330375 209.51878871 146.38425701 215.88183594 139.99438477 C216.75266447 139.1198924 216.75266447 139.1198924 217.64108551 138.22773352 C227.05684494 128.771933 236.46666636 119.31023901 245.87522876 109.84727827 C255.56884081 100.09810811 265.27217482 90.35868293 274.98362064 80.62727755 C280.95559855 74.64228443 286.91951746 68.64948593 292.87301564 62.64610901 C296.95543668 58.53080612 301.04704802 54.42478854 305.14578414 50.32573537 C307.50343936 47.96731896 309.85538989 45.60389522 312.19920731 43.23168182 C330.89941338 24.31424473 347.31376747 12.10940047 374.78070068 11.8117218 C379.47922636 11.79980724 384.17669594 11.8327017 388.875 11.875 C390.83463081 11.88505604 392.79426665 11.89417722 394.75390625 11.90234375 C399.50273087 11.92413511 404.25130823 11.95851835 409 12 C404.88883342 16.89954965 400.62213224 21.5195254 396.09036255 26.02989197 C395.41961697 26.70149198 394.74887138 27.37309198 394.05780017 28.06504351 C391.82621728 30.29826384 389.59109705 32.52790865 387.35595703 34.75756836 C385.74896623 36.36427689 384.14219599 37.97120605 382.53562927 39.57833862 C378.18505364 43.92920066 373.83140598 48.27697684 369.47719431 52.62419963 C364.92301697 57.17211742 360.37167932 61.72287522 355.82003784 66.27333069 C348.18371888 73.90689665 340.54565807 81.5387151 332.90625 89.16918945 C325.04016464 97.02608561 317.17513785 104.88403895 309.31152344 112.7434082 C308.8262195 113.22844942 308.34091556 113.71349063 307.84090544 114.21323007 C305.4061084 116.646722 302.97133207 119.08023464 300.53656602 121.51375759 C280.360919 141.67905013 260.1816133 161.84067867 240 182 C240.62962143 183.1094397 241.25924286 184.21887939 241.90794373 185.36193848 C242.26210578 185.98599831 242.61626783 186.61005814 242.98116207 187.25302887 C244.16614863 189.28489011 245.46174579 191.19369162 246.84765625 193.09375 C247.36457031 193.80595703 247.88148438 194.51816406 248.4140625 195.25195312 C248.95804688 195.99380859 249.50203125 196.73566406 250.0625 197.5 C250.63613281 198.28826172 251.20976563 199.07652344 251.80078125 199.88867188 C253.52973501 202.26215817 255.26382199 204.63179449 257 207 C257.48452637 207.66128906 257.96905273 208.32257813 258.46826172 209.00390625 C260.25694797 211.44400797 262.04669156 213.88332525 263.83862305 216.32104492 C270.69803868 225.65908329 277.45328443 235.07316983 284.22265625 244.4765625 C289.83473052 252.26660937 295.48166723 260.02829706 301.1875 267.75 C306.47082192 274.9009585 311.68340419 282.09663603 316.82763672 289.34814453 C324.27040588 299.83497838 331.79132205 310.26512576 339.32666016 320.68554688 C341.51307264 323.70964818 343.69793333 326.73486839 345.88256836 329.76025391 C346.96001497 331.25225319 348.03765141 332.74411541 349.11547852 334.23583984 C351.87726038 338.05843583 354.6362705 341.88298558 357.390625 345.7109375 C360.10174275 349.47772906 362.82085586 353.23860821 365.546875 356.99462891 C366.466143 358.26325581 367.38311016 359.5335559 368.296875 360.80615234 C378.64203653 375.2028889 388.95302042 385.97211787 407 389 C412.98842073 389.81555858 418.98369728 390.40748534 425 391 C425 401.56 425 412.12 425 423 C420.30738443 423.09302542 415.61810457 423.1722765 410.92529297 423.21972656 C409.33696519 423.23955268 407.74870741 423.26662221 406.16064453 423.30175781 C382.66613163 423.80765613 359.7628506 416.88964578 342.36328125 400.43359375 C334.25132073 392.08028564 327.66396004 382.50821545 321 373 C319.06428048 370.24874406 317.12602822 367.49927742 315.1875 364.75 C314.68758545 364.04020996 314.1876709 363.33041992 313.67260742 362.59912109 C309.44712759 356.60916256 305.15728857 350.66723978 300.85620117 344.73144531 C296.69744444 338.98470946 292.59971025 333.19721326 288.51953125 327.39453125 C284.88545434 322.2343328 281.20328599 317.1107106 277.5 312 C273.2931417 306.1943357 269.12396165 300.3648422 265 294.5 C260.28962914 287.80217362 255.51683279 281.15192553 250.71484375 274.51953125 C247.46049257 270.02431235 244.22008575 265.51982227 241 261 C236.63709807 254.87745982 232.2369693 248.78223396 227.82958984 242.69165039 C224.83009618 238.54393387 221.84688515 234.38555812 218.88427734 230.21142578 C214.73062658 224.36023802 210.47995736 218.60736384 206 213 C201.77889239 216.56449087 197.61929627 220.19320141 193.5 223.875 C192.6234375 224.65617188 191.746875 225.43734375 190.84375 226.2421875 C188.69869473 228.32241967 186.77684962 230.36997789 184.83984375 232.62890625 C180.62566726 237.51730503 176.0830772 242.0674003 171.51196289 246.6184082 C170.06475615 248.06025221 168.62297974 249.50737116 167.18164062 250.95507812 C161.95955908 256.18157957 156.65515592 261.243136 151 266 C150.41742432 266.49459717 149.83484863 266.98919434 149.23461914 267.4987793 C140.61298886 274.74677334 131.68189273 281.10924567 121.98095703 286.82958984 C120.06893712 287.95926984 118.17336673 289.11327299 116.27734375 290.26953125 C104.77266972 297.14116906 92.46301144 302.1396179 80 307 C79.10812988 307.35352539 78.21625977 307.70705078 77.29736328 308.07128906 C70.16493042 310.79866288 62.96441231 312.55398226 55.5 314.125 C54.37335938 314.37636719 53.24671875 314.62773438 52.0859375 314.88671875 C34.00368483 318.74992933 16.04821892 319.28544578 -2.38671875 319.1953125 C-4.6688474 319.19157164 -6.95097768 319.18872976 -9.23310852 319.18673706 C-15.17262386 319.17918493 -21.11203777 319.15961117 -27.05151367 319.1373291 C-33.13914621 319.11668682 -39.2267955 319.10769646 -45.31445312 319.09765625 C-57.20967942 319.07635539 -69.1048312 319.04232422 -81 319 C-81.19958219 319.67754491 -81.39916437 320.35508982 -81.6047945 321.05316639 C-82.00264039 322.39363545 -82.00264039 322.39363545 -82.40852356 323.76118469 C-82.66998075 324.6449796 -82.93143793 325.52877451 -83.20081806 326.43935108 C-84.27854853 329.89249389 -85.60154923 333.14707796 -87.01171875 336.48046875 C-87.439617 337.49903458 -87.439617 337.49903458 -87.87615967 338.53817749 C-88.48954952 339.99700221 -89.10517397 341.45488908 -89.72286987 342.91189575 C-91.40369115 346.87702594 -93.06768443 350.8492272 -94.734375 354.8203125 C-95.08225571 355.64787552 -95.43013641 356.47543854 -95.78855896 357.32807922 C-100.06355586 367.50892128 -104.2382593 377.73083476 -108.41390991 387.95272827 C-108.72873322 388.72331573 -109.04355652 389.4939032 -109.36791992 390.2878418 C-109.6402092 390.95470505 -109.91249847 391.6215683 -110.19303894 392.30863953 C-114.39708888 402.56976702 -118.6958366 412.77761193 -123 423 C-139.17 423 -155.34 423 -172 423 C-171.24779891 418.48679349 -170.58695983 415.56876593 -168.875 411.51171875 C-168.19920898 409.89535522 -168.19920898 409.89535522 -167.50976562 408.24633789 C-167.01154297 407.07192139 -166.51332031 405.89750488 -166 404.6875 C-165.46998683 403.42404699 -164.94071205 402.16028402 -164.41210938 400.89624023 C-163.24882954 398.11619318 -162.08244535 395.33747643 -160.9140625 392.55957031 C-157.41707315 384.2379134 -153.9597558 375.89968733 -150.5 367.5625 C-150.13357391 366.68005615 -149.76714783 365.7976123 -149.38961792 364.88842773 C-144.39282628 352.8503217 -139.47793902 340.78490209 -134.66577148 328.67163086 C-130.20425057 317.45949081 -125.63819918 306.29096584 -121.0625 295.125 C-120.67364624 294.17594788 -120.28479248 293.22689575 -119.88415527 292.24908447 C-119.10443446 290.34606798 -118.32471037 288.44305283 -117.54498291 286.54003906 C-117.1640448 285.61030273 -116.78310669 284.68056641 -116.390625 283.72265625 C-116.01242615 282.7996875 -115.63422729 281.87671875 -115.24456787 280.92578125 C-111.92009649 272.81027169 -108.61138467 264.68843963 -105.3125 256.5625 C-105.05522125 255.92901642 -104.7979425 255.29553284 -104.53286743 254.64285278 C-101.8065112 247.92935128 -99.08544557 241.21373432 -96.37171936 234.49511719 C-87.62998828 212.85354863 -78.74599138 191.27443718 -69.78915405 169.72105408 C-64.96050316 158.09668214 -60.20638339 146.44222461 -55.4765625 134.77734375 C-50.74240273 123.11264927 -45.95343637 111.47489287 -41.0625 99.875 C-34.40637731 84.0849561 -27.9441503 68.21669788 -21.47973633 52.34741211 C-20.62843966 50.2576409 -19.77712146 48.16787847 -18.92578125 46.078125 C-18.50891556 45.05481583 -18.09204987 44.03150665 -17.66255188 42.97718811 C-13.71363649 33.28824681 -9.73776563 23.61050731 -5.75 13.9375 C-5.44941681 13.20832367 -5.14883362 12.47914734 -4.83914185 11.72787476 C-3.22720135 7.81812481 -1.61382143 3.90897475 0 0 Z " fill="#F48E2A" transform="translate(644,203)"/>
<path d="M0 0 C16.17 0 32.34 0 49 0 C49.29421446 16.85587724 49.53335305 33.70954141 49.67355824 50.56727886 C49.7404077 58.39580824 49.83142621 66.22262158 49.98071289 74.05004883 C50.11087237 80.87788901 50.19429061 87.70448603 50.22315043 94.53353244 C50.2400065 98.14553661 50.27918491 101.75398678 50.37449074 105.36484337 C51.00642525 130.25350231 51.00642525 130.25350231 44.45252514 137.505826 C41.7834172 139.97150621 39.02445518 141.97888451 36 144 C34.66937742 145.1275811 33.34976248 146.26885396 32.05859375 147.44140625 C31.44483887 147.9636377 30.83108398 148.48586914 30.19873047 149.02392578 C24.58307022 154.07091158 19.37027556 159.57099 14.0625 164.9375 C11.61872227 167.40778222 9.17169862 169.87478217 6.72265625 172.33984375 C6.16232193 172.90847641 5.60198761 173.47710907 5.02467346 174.06297302 C3.70189472 175.39424165 2.35357095 176.70005175 1 178 C0.67 178 0.34 178 0 178 C0 119.26 0 60.52 0 0 Z " fill="#F68F2B" transform="translate(786,214)"/>
<path d="M0 0 C3.90931384 1.4663831 4.95773324 3.25827922 6.6640625 6.99609375 C7.14109619 8.01977051 7.61812988 9.04344727 8.10961914 10.09814453 C8.60969482 11.20013184 9.10977051 12.30211914 9.625 13.4375 C10.69628014 15.73704837 11.77052813 18.03521632 12.84765625 20.33203125 C13.3802002 21.46979004 13.91274414 22.60754883 14.46142578 23.77978516 C16.54000263 28.13021814 18.78241027 32.37801092 21.0625 36.625 C24.44208962 42.92078397 27.60015243 49.28838644 30.640625 55.75390625 C35.6040579 66.21558223 40.75421538 76.57771943 45.94921875 86.92578125 C46.34303301 87.71068184 46.73684727 88.49558243 47.14259529 89.30426788 C50.83138279 96.65554164 54.52544674 104.00415736 58.22338867 111.35083008 C60.26887341 115.4151159 62.31051661 119.48131211 64.3497715 123.54872704 C65.12137465 125.08573083 65.89449444 126.62197423 66.66916466 128.15743446 C67.73967097 130.27935675 68.80531871 132.40365143 69.86987305 134.52856445 C70.18921814 135.15849304 70.50856323 135.78842163 70.83758545 136.43743896 C73 140.77209395 73 140.77209395 73 143 C54.85 143 36.7 143 18 143 C14.37 135.41 10.74 127.82 7 120 C4.04595242 114.04781458 1.07585855 108.10556249 -1.92236328 102.17578125 C-6.755595 92.60623751 -11.44012894 82.9708049 -16.06298828 73.29785156 C-19.0307536 67.09074854 -22.01970018 60.89498227 -25.03515625 54.7109375 C-25.72132784 53.30154047 -26.40744457 51.89211674 -27.09350586 50.48266602 C-28.10157252 48.41178282 -29.11078919 46.34150807 -30.12405396 44.27316284 C-31.06778945 42.34646669 -32.0069459 40.41759664 -32.9453125 38.48828125 C-33.48687988 37.38009033 -34.02844727 36.27189941 -34.58642578 35.13012695 C-35.94185413 32.12875444 -37.02025541 29.14174584 -38 26 C-37.15179687 25.53851563 -36.30359375 25.07703125 -35.4296875 24.6015625 C-22.71212077 17.5728555 -11.20632146 9.24392416 0 0 Z " fill="#F48E2A" transform="translate(803,483)"/>
<path d="M0 0 C0.66 0.66 1.32 1.32 2 2 C-0.38330605 4.47074625 -2.78367947 6.92422111 -5.1875 9.375 C-6.19780273 10.42300781 -6.19780273 10.42300781 -7.22851562 11.4921875 C-8.21948242 12.49765625 -8.21948242 12.49765625 -9.23046875 13.5234375 C-9.83270264 14.14138184 -10.43493652 14.75932617 -11.05541992 15.39599609 C-13.24855119 17.20501963 -15.32617841 18.07576582 -18 19 C-12.44964797 12.21623641 -6.23557973 6.14477032 0 0 Z " fill="#2C1E14" transform="translate(813,365)"/>
</svg>
